<?xml version="1.0" standalone="no"?>
<!DOCTYPE svg PUBLIC "-//W3C//DTD SVG 20010904//EN"
 "http://www.w3.org/TR/2001/REC-SVG-20010904/DTD/svg10.dtd">
<svg version="1.0" xmlns="http://www.w3.org/2000/svg"
 width="700.000000pt" height="700.000000pt" viewBox="0 0 700.000000 700.000000"
 preserveAspectRatio="xMidYMid meet">
<metadata>
Created by potrace 1.11, written by Peter Selinger 2001-2013
</metadata>
<g transform="translate(0.000000,700.000000) scale(0.100000,-0.100000)"
fill="#000000" stroke="none">
<path d="M0 3500 l0 -3500 3500 0 3500 0 0 3500 0 3500 -3500 0 -3500 0 0
-3500z m6601 3055 c1 -298 -1 -578 -5 -582 -13 -13 -409 -107 -536 -127 -142
-23 -317 -46 -380 -51 -41 -3 -91 -8 -110 -10 -62 -8 -191 -15 -344 -20 -82
-3 -152 -7 -154 -10 -6 -6 -43 -118 -40 -120 2 -1 45 -5 96 -8 51 -4 97 -9
101 -11 4 -3 23 -8 42 -11 60 -10 122 -55 148 -108 41 -83 35 -125 -74 -532
-41 -151 -95 -358 -100 -376 -2 -9 -22 -85 -44 -168 -23 -84 -41 -154 -41
-156 0 -2 -22 18 -49 45 -69 69 -144 92 -314 94 -71 2 -154 -1 -185 -5 -31 -4
-79 -10 -106 -13 -26 -3 -65 -10 -85 -15 -20 -6 -49 -12 -65 -15 -58 -10 -194
-60 -295 -108 -87 -42 -253 -138 -271 -158 -3 -3 -38 -31 -78 -64 -117 -92
-281 -261 -393 -401 -232 -292 -420 -683 -533 -1110 -37 -139 -49 -205 -71
-390 -10 -85 -157 -458 -221 -561 -71 -114 -169 -174 -251 -152 -59 15 -81 73
-63 163 6 28 158 496 340 1040 248 746 334 1017 349 1099 22 125 21 280 -2
364 -48 169 -183 277 -391 312 -123 21 -309 19 -416 -5 -41 -9 -84 -18 -95
-20 -26 -6 -119 -45 -175 -74 -71 -37 -186 -129 -263 -211 -75 -80 -207 -252
-207 -269 0 -6 -4 -11 -10 -11 -5 0 -10 -5 -10 -11 0 -6 -13 -29 -28 -52 -35
-52 -101 -172 -164 -297 -53 -107 -59 -106 -24 7 13 43 43 143 66 223 23 80
45 156 50 170 5 14 15 50 24 80 8 30 35 123 60 205 24 83 74 254 111 380 37
127 80 273 95 325 16 52 65 221 110 375 45 154 91 312 103 350 11 39 22 75 23
80 1 6 24 82 50 170 50 169 59 205 52 205 -2 0 -37 -11 -78 -24 -68 -22 -290
-83 -329 -91 -9 -2 -83 -17 -166 -33 -82 -17 -170 -33 -195 -37 -25 -3 -56 -8
-70 -10 -25 -5 -50 -8 -160 -20 -97 -11 -318 -26 -420 -29 l-35 -1 -1 445 c0
245 0 447 2 450 1 3 1402 5 3113 5 l3111 0 1 -110z m-6131 -984 c63 -37 92
-94 92 -174 0 -78 -11 -121 -111 -456 -34 -112 -61 -210 -61 -217 0 -8 -3 -14
-8 -14 -5 0 -9 857 -3 893 2 12 40 -1 91 -32z m6131 -1733 c0 -920 0 -1688 -1
-1705 0 -28 -4 -33 -24 -33 -14 0 -60 -11 -103 -25 -276 -87 -451 -326 -451
-616 0 -265 163 -402 481 -402 l97 1 1 -27 c2 -133 0 -684 -4 -687 -3 -4
-6116 -8 -6212 -4 -7 0 -11 131 -10 397 0 351 2 398 15 401 11 2 38 80 94 270
83 287 167 549 241 757 26 72 51 141 55 155 15 46 140 365 160 407 11 24 20
45 20 48 0 13 150 345 215 475 171 346 301 549 435 681 59 58 88 79 122 88 79
22 108 -9 103 -109 -4 -74 -9 -91 -310 -1000 -308 -928 -300 -903 -320 -1000
-53 -254 -36 -457 50 -604 80 -136 235 -224 430 -244 381 -38 680 81 867 343
47 65 110 192 138 278 23 68 40 75 40 15 0 -34 53 -195 80 -245 60 -111 99
-160 184 -231 161 -134 413 -193 656 -154 47 7 90 15 95 16 6 2 27 6 48 11 20
4 40 11 43 16 3 5 13 9 22 9 10 0 40 12 67 26 223 119 398 325 564 664 40 82
41 84 36 40 -3 -25 -8 -56 -10 -70 -2 -14 -5 -77 -6 -140 -3 -236 74 -392 246
-495 194 -117 559 -119 809 -6 228 103 373 290 485 626 22 66 59 173 81 238
22 65 38 122 36 126 -3 4 -26 6 -53 5 -63 -2 -63 -2 -63 -14 0 -25 -166 -441
-201 -507 -48 -87 -116 -165 -165 -188 -21 -10 -58 -17 -83 -17 -105 3 -121
84 -58 302 38 132 156 556 181 650 28 105 127 466 161 585 19 66 50 179 69
250 19 72 67 245 106 385 39 140 73 264 75 274 3 11 16 58 29 105 34 116 402
1454 417 1514 6 26 14 46 16 43 2 -2 4 -757 4 -1678z m-1551 392 c46 -33 79
-132 56 -169 -3 -4 -25 -86 -50 -182 -24 -96 -68 -262 -97 -369 -115 -434
-133 -501 -169 -640 -21 -80 -63 -221 -95 -315 -243 -725 -554 -1189 -742
-1110 -33 14 -66 55 -77 95 -26 96 -26 466 -1 660 3 19 7 54 10 77 8 66 15
114 25 168 5 28 12 61 14 75 74 403 264 910 468 1248 140 233 317 425 435 474
74 30 171 25 223 -12z"/>
</g>
</svg>
