<svg xmlns="http://www.w3.org/2000/svg" viewBox="0 0 260 260"><defs><style>.a{fill:#ff3860;}</style></defs><title>logo</title><path class="a" d="M245.19 181.83V54.14l-39.75 144.13a17.09 17.09 0 0 0-1.11 5.33q0 4.22 3.89 4.22 6.67 0 12-14.33l4.78-12.78h4.33l-5.67 16.67q-8 23.45-32.56 23.45-14.44 0-20.44-8.67-3.33-4.89-3.33-12.78a50.78 50.78 0 0 1 1.11-10.11q-7.22 16.22-16.17 23.89t-22.39 7.67a31.21 31.21 0 0 1-14.83-3.5 25.38 25.38 0 0 1-10.56-10.94 34.37 34.37 0 0 1-3.49-11.86l-1 2.85q-8 23.45-32.56 23.45-12.33 0-18.11-5.78t-5.78-15.89a54.61 54.61 0 0 1 3.22-17.56l19.56-58.89a29.72 29.72 0 0 0 2-8.89q0-3.44-2.44-3.44-5 0-12.72 11.78t-16 31.11q-8.28 19.33-15.28 41.11L15.55 216l-.22.89v-.22l-.22.89H13.9v29.84h231.29v-26.85a27.25 27.25 0 0 1-3.86.27q-8.78 0-13.28-3.83t-4.5-11.17A23.33 23.33 0 0 1 236 184.71a25.9 25.9 0 0 1 9.19-2.88zm14.92 31.1v49.57H-1v-44.9h-24.1L-1 136.32V-2.5h261.11V184a13.59 13.59 0 0 1 2.27 1.57q4.61 3.94 4.61 11.61a21.08 21.08 0 0 1-3.44 11.44 25.62 25.62 0 0 1-3.44 4.31zM245.19 38.2V12.42H13.9v33.5a202.05 202.05 0 0 0 25.82-2.32 189 189 0 0 0 28.5-6.89L38.77 137.15q7.44-16.11 14.61-25t14.67-12.39A39.61 39.61 0 0 1 85 96.26q22.33 0 22.33 18.89a50.42 50.42 0 0 1-3 15.56l-22.56 67.56a17.94 17.94 0 0 0-1.11 5.33q0 4.22 3.89 4.22 6.78 0 12.11-14.33l4.06-10.86q1.09-16 9.11-34.58a99.75 99.75 0 0 1 26.83-36.67 60.9 60.9 0 0 1 41-15.11q11 0 13.89 5.67l9.56-36.11a26.33 26.33 0 0 0 1.11-6.33 7.06 7.06 0 0 0-3.56-6.61q-3.56-2.06-11.89-2.06l1.56-4.83q31.26-.26 56.86-7.8zM13.9 86l6-20.18a26.33 26.33 0 0 0 1.1-6.33 7.06 7.06 0 0 0-3.56-6.61 12.82 12.82 0 0 0-3.54-1.3zm142.37 115.77q4.5-4.94 9.83-15.83a192.68 192.68 0 0 0 10.44-27.45l6.89-26 .11-.44v.11l6.56-25a8 8 0 0 0-2.39-4.22 7.45 7.45 0 0 0-4.83-1.33q-7 0-16.56 13.5t-16.39 34.83a142.66 142.66 0 0 0-6.83 43.78q0 6.89 1.17 9.94a4.27 4.27 0 0 0 4.28 3.06q3.22-.01 7.72-4.95z"/></svg>