<svg xmlns="http://www.w3.org/2000/svg" viewBox="0 0 859 276"><defs><linearGradient id="linearGradient-1" x1="50%" x2="50%" y1="100%" y2="0%"><stop stop-color="#111111" offset="0%"/><stop stop-color="#222222" offset="100%"/></linearGradient></defs><g id="Main" fill="none" fill-rule="evenodd"><g id="About" fill="url(#linearGradient-1)" transform="translate(-30 -718)"><g id="bg-rect"><path id="hello." d="M215.214844 938.585938l-7.306641 19.541015c-7.30664 19.541016-14.273437 21.919922-18.521484 21.919922-2.208985 0-5.947266-.679687-5.947266-6.457031 0-2.039063.509766-4.587891 1.699219-8.15625l34.494141-103.3125c2.888671-8.666016 4.58789-16.652344 4.58789-23.789063 0-17.162109-9.515625-28.886719-34.154297-28.886719-27.1875 0-47.238281 12.064454-70.6874997 62.53125l45.0292967-153.609374c-27.527344 9.005859-55.3945311 13.933593-93.2871092 14.273437l-2.5488282 7.306641c17.3320313 0 23.6191406 4.248046 23.6191406 13.253906 0 2.71875-.6796874 5.947266-1.6992187 9.685547L21.67382812 995H83.1855469l.3398437-1.359375v.339844l.3398438-1.359375 9.6855468-33.134766c21.0703126-65.929687 51.3164068-128.460937 67.2890628-128.460937 2.378906 0 3.738281 1.699218 3.738281 5.267578 0 3.058593-1.019531 7.646484-3.058594 13.59375l-29.90625 90.058593c-3.2285154 9.515626-4.9277341 18.691407-4.9277341 26.847657 0 19.371093 10.1953121 33.134765 36.5332031 33.134765 18.521484 0 39.761719-6.626953 49.787109-35.853515l8.666016-25.488281h-6.457031zm195.75-98.384766c0 41.970703-57.433594 71.027344-109.769532 83.091797-.679687 6.117187-1.189453 12.064453-1.189453 17.841797 0 27.017578 11.384766 33.644531 28.886719 33.644531 9.345703 0 29.90625-5.947266 48.767578-24.298828l5.4375 2.71875c-15.632812 23.279297-45.539062 46.728515-88.019531 46.728515-32.625 0-60.152344-16.822265-60.152344-49.107422 0-67.798828 56.414063-141.375 132.878907-141.375 24.808593 0 43.160156 9.855469 43.160156 30.75586zm-50.806641-24.128906c-19.880859 0-49.617187 52.335937-57.943359 100.933593 11.384765-6.457031 22.429687-14.273437 31.945312-23.61914 18.351563-18.181641 31.605469-41.460938 31.605469-68.478516 0-6.287109-2.039063-8.835937-5.607422-8.835937zm180.626953-97.705078l-73.40625 247.066406c-.679687 2.548828-1.019531 4.757812-1.019531 6.457031 0 6.117187 3.398437 8.15625 6.626953 8.15625 2.378906 0 10.025391-1.359375 17.671875-21.919922l7.306641-19.541015h6.626953l-8.666016 25.488281c-10.365234 29.90625-33.134765 35.853515-49.447265 35.853515-22.59961 0-36.703125-11.894531-36.703125-35.34375 0-7.136718 1.359375-15.292968 4.078125-24.638672l53.185546-177.058593c1.019532-3.738281 1.699219-6.966797 1.699219-9.685547 0-9.00586-6.287109-13.253906-23.61914-13.253906l2.378906-7.306641c38.0625-.339844 65.759765-5.267578 93.287109-14.273437zm109.939453 0l-73.40625 247.066406c-.679687 2.548828-1.019531 4.757812-1.019531 6.457031 0 6.117187 3.398438 8.15625 6.626953 8.15625 2.378906 0 10.025391-1.359375 17.671875-21.919922l7.306641-19.541015h6.626953l-8.666016 25.488281c-10.365234 29.90625-33.134765 35.853515-49.447265 35.853515-22.59961 0-36.703125-11.894531-36.703125-35.34375 0-7.136718 1.359375-15.292968 4.078125-24.638672l53.185547-177.058593c1.019531-3.738281 1.699218-6.966797 1.699218-9.685547 0-9.00586-6.287109-13.253906-23.61914-13.253906l2.378906-7.306641c38.0625-.339844 65.759766-5.267578 93.287109-14.273437zm-20.220703 222.427734c0-54.714844 37.552735-131.34961 121.154297-131.34961 40.441406 0 62.021485 21.240235 62.021485 59.302735 0 54.544922-37.722657 131.179687-121.154297 131.179687-40.441407 0-62.021485-21.240234-62.021485-59.132812zm119.455078-124.382813c-19.880859 0-61.68164 92.267579-61.68164 157.007813 0 14.613281 2.208984 19.541016 6.626953 19.541016 18.521484 0 61.001953-86.320313 61.001953-156.328126 0-17.671874-2.888672-20.220703-5.947266-20.220703zm72.046875 160.576172c0 14.953125 9.345703 22.939453 27.1875 22.939453 21.919922 0 39.251953-17.841796 39.251953-36.193359 0-15.632813-9.685546-23.789063-27.527343-23.789063-22.259766 0-38.91211 15.462891-38.91211 37.042969z"/></g></g></g></svg>
