<svg xmlns="http://www.w3.org/2000/svg" viewBox="0 0 871 282">
  <defs>
    <linearGradient id="a" x1="100%" x2="-58.8180516%" y1="100%" y2="100%">
      <stop stop-color="#222222" offset="0%"/>
      <stop stop-color="#333333" offset="100%"/>
    </linearGradient>
  </defs>
  <path fill="url(#a)" fill-rule="evenodd" d="M716.435547 783.764648c5.550809 8.212932 9.402333 17.898382 11.554687 29.056641 2.152355 11.158259 3.228516 21.89155 3.228516 32.200195 0 19.711036-3.086883 38.515536-9.260742 56.414063s-15.179628 32.455022-27.017578 43.669922c-11.83795 11.2149-25.799725 16.822265-41.885742 16.822265-8.609419 0-16.510707-1.416001-23.704102-4.248046-7.193395-2.832046-12.999001-7.363251-17.416992-13.59375-13.933664 11.89459-31.775282 17.841796-53.525391 17.841796-10.308645 0-19.172814-1.925762-26.592773-5.777343-7.419959-3.851582-13.027325-9.147428-16.822266-15.887696-3.794941-6.740268-5.692383-14.358356-5.692383-22.854492 0-12.461 4.163045-24.610292 12.489258-36.448242 8.326214-11.83795 19.314385-23.505802 32.964844-35.003906 13.650459-11.498105 33.89928-27.329001 60.74707-47.493164 14.726636-10.988337 20.107442-15.009781 16.142578-12.064453-5.890654.113281-11.24314 1.104482-16.057617 2.973632-4.814477 1.86915-9.005841 4.049793-12.574219 6.541992-3.568377 2.4922-7.731421 5.720684-12.489257 9.685547-5.55081 4.644555-10.053694 8.014638-13.50879 10.110352-3.455095 2.095714-7.221659 3.143555-11.299804 3.143555-3.058609 0-6.740213-.962881-11.044922-2.888672-3.398455-1.585946-6.117177-2.378906-8.15625-2.378906-2.832046 0-5.041008.991201-6.626953 2.973632-1.585946 1.982432-3.228507 5.409156-4.927735 10.280274l-2.378906 7.30664h-6.626953l7.646484-25.318359c3.964864-13.480536 8.779269-22.769506 14.44336-27.867187 5.664091-5.097682 12.007777-7.646485 19.03125-7.646485 3.964863 0 9.402309 1.076161 16.3125 3.228516 4.757836 1.472663 9.232401 2.633785 13.423828 3.483398 4.191427.849614 9.232392 1.274414 15.123047 1.274414 9.289109 0 17.841758-1.755842 25.658203-5.267578l3.568359-6.626953 7.306641 3.568359c-14.160227 16.312582-26.76264 33.61612-37.807617 51.911133-11.044977 18.295014-19.682586 35.881752-25.913086 52.760742-6.2305 16.878991-9.345703 31.492126-9.345703 43.839844 0 7.250036 1.217761 12.715802 3.65332 16.397461 2.435559 3.681659 6.655243 5.522461 12.65918 5.522461 5.777372 0 11.441378-1.529282 16.992187-4.587891-3.398454-6.796909-5.097656-15.009717-5.097656-24.638671 0-13.820382 3.228483-27.074156 9.685547-39.761719 6.457063-12.687564 14.330031-22.911094 23.61914-30.670899 9.289109-7.759804 17.898398-11.639648 25.828125-11.639648 9.515673 0 14.273438 7.306567 14.273438 21.919922 0 24.468872-7.872968 46.558495-23.619141 66.269531 5.777373 8.496136 14.330022 12.744141 25.658203 12.744141 9.289109 0 17.218718-3.794884 23.789063-11.384766 6.570345-7.589882 11.61131-17.643492 15.123047-30.161133 3.511736-12.517641 5.494138-26.196215 5.947265-41.036133-10.535209-4.871118-19.512658-9.628883-26.932617-14.273437-7.419959-4.644555-13.763645-10.450161-19.03125-17.416992-5.267604-6.966832-7.901367-15.15132-7.901367-24.553711 0-3.625018.849601-7.165022 2.548828-10.620117 1.699227-3.455096 4.33299-6.343739 7.901367-8.666016 3.568378-2.322277 8.071262-3.483399 13.508789-3.483399 9.402391 0 16.878879 4.106405 22.429688 12.319336zm-61.001953 63.975586c-2.605482 5.324246-4.701164 12.234333-6.28711 20.730469-1.585945 8.496136-2.378906 17.331985-2.378906 26.507813 0 7.250036 1.076161 13.537082 3.228516 18.861328 6.003936-8.7227 10.676741-18.09663 14.018554-28.122071 3.341814-10.02544 5.012696-19.909131 5.012696-29.651367 0-10.875054-1.869122-16.3125-5.607422-16.3125-2.718764 0-5.380846 2.662083-7.986328 7.986328zm106.371094-4.927734c9.062545-20.277445 22.712799-37.241143 40.951171-50.891602 18.238373-13.650458 40.441276-20.475586 66.609375-20.475586 20.164164 0 35.54194 5.097606 46.133789 15.292969 10.59185 10.195364 15.887696 24.865139 15.887696 44.009766 0 19.597754-4.531205 39.535055-13.59375 59.8125-9.062546 20.277445-22.74112 37.241143-41.036133 50.891601-18.295013 13.650459-40.469596 20.475586-66.524414 20.475586-20.164163 0-35.541939-5.097605-46.133789-15.292968-10.59185-10.195364-15.887695-24.808499-15.887695-43.839844 0-19.711036 4.531204-39.704977 13.59375-59.982422zm81.137695-38.232422c-9.912159 17.4454-18.549768 38.515502-25.913086 63.210938s-11.044922 47.238179-11.044922 67.628906c0 7.136754.538081 12.17772 1.614258 15.123047 1.076177 2.945327 2.747059 4.417969 5.012695 4.417969 6.2305 0 14.273388-8.382729 24.128906-25.148438s18.464807-37.35437 25.828125-61.766602c7.363318-24.412231 11.044922-47.549695 11.044922-69.413086 0-8.043008-.53808-13.423814-1.614258-16.142578-1.076177-2.718763-2.520498-4.078125-4.333007-4.078125-6.570346 0-14.811474 8.722569-24.723633 26.167969zm265.248047-28.716797c5.04104 2.945327 8.89256 6.995092 11.55469 12.149414 2.66212 5.154323 3.99316 10.903289 3.99316 17.247071 0 7.703163-1.6992 14.896451-5.09766 21.580078-3.39845 6.683627-8.07125 12.007792-14.01855 15.972656-5.9473 3.964864-12.65914 5.947266-20.13574 5.947266-8.49614 0-14.98142-2.208963-19.45606-6.626954-4.47463-4.41799-6.71191-10.931597-6.71191-19.541015 0-6.683627 1.72752-13.083954 5.18262-19.201172 3.45509-6.117218 8.09958-11.299783 13.93359-15.547852 5.83401-4.248068 12.14938-6.995111 18.94629-8.241211-2.37892-.792972-4.02148-1.189453-4.92774-1.189453-7.36331 0-14.04684 1.500962-20.05078 4.50293-6.00393 3.001968-12.65914 10.421816-19.96582 22.259766-7.30667 11.83795-14.9814 29.877808-23.02441 54.120117L1002.75391 957h-61.681644l42.480468-151.060547c1.019537-3.7383 1.529297-6.740223 1.529297-9.005859 0-3.7383-1.529281-5.607422-4.58789-5.607422-3.625018 0-6.966782 1.642562-10.025391 4.927734-3.058609 3.285173-6.117172 8.949179-9.175781 16.992188l-7.986328 21.240234h-6.626953l9.685546-27.1875c8.7227-23.902463 25.997918-35.853516 51.826176-35.853516 11.44146 0 19.68259 3.086884 24.72363 9.260743 5.04104 6.173859 7.56152 14.131787 7.56152 23.874023 0 1.359382-.11328 3.511704-.33984 6.457031 4.53127-9.968799 9.26072-17.813448 14.18848-23.534179 4.92775-5.720732 10.25192-9.827136 15.97265-12.319336 5.72073-2.4922 12.3193-3.738282 19.7959-3.738282 7.02347 0 13.05564 1.472642 18.09668 4.417969zm149.10645 22.854492c5.89065-6.853549 13.25386-12.206035 22.08984-16.057617-.79297-1.359382-2.03906-2.463863-3.73828-3.313476-1.69923-.849614-3.34179-1.274414-4.92774-1.274414-6.11721 0-11.49802 1.869122-16.14258 5.607422-2.94532 2.492199-5.43748 5.890603-7.47656 10.195312-2.03907 4.304709-4.30467 10.081995-6.79687 17.332031-2.83205 8.156291-5.49413 14.868138-7.98633 20.135742-2.4922 5.267605-5.8906 10.13865-10.19531 14.613282-4.30471 4.474631-9.74216 7.618155-16.3125 9.430664 42.48068.226563 63.7207 13.367057 63.7207 39.421875 0 4.304709-.45312 8.439433-1.35937 12.404297l-4.07813 20.220703c-.67969 3.285172-1.01953 5.947255-1.01953 7.986328 0 4.417991 1.6992 6.626953 5.09766 6.626953 6.91019 0 13.08395-7.306568 18.52148-21.919922L1294 900.585938h6.62695l-8.66601 25.488281c-8.94927 23.902463-27.52721 35.853515-55.73438 35.853515-22.4298 0-33.64453-10.25185-33.64453-30.755859 0-4.417991.50976-9.175756 1.5293-14.273437l5.94726-24.638672c1.69923-5.777373 2.54883-10.705058 2.54883-14.783204 0-5.097681-1.35936-9.119125-4.07812-12.064453-2.71877-2.945327-7.02341-5.097649-12.91407-6.457031L1166.89844 957h-61.51172l68.81836-232.113281c1.13282-4.191427 1.69922-7.419911 1.69922-9.685547 0-4.644555-1.81249-8.014638-5.4375-10.110352-3.62502-2.095713-9.68551-3.143554-18.18164-3.143554l2.54882-7.306641c18.35166-.113282 34.91888-1.359363 49.70215-3.738281 14.78328-2.378918 29.31145-5.890602 43.58496-10.535156l-50.46679 171.960937c7.25003-1.699227 13.1406-4.70115 17.67187-9.005859 4.53127-4.304709 8.04296-9.034154 10.53516-14.188477 2.4922-5.154323 5.15428-11.86617 7.98633-20.135742 2.83204-7.929727 5.26756-14.075174 7.30664-18.436524 2.03907-4.361349 4.81443-8.014633 8.32617-10.959961 3.28517-2.718763 6.93846-4.757805 10.95996-6.117187 4.0215-1.359382 7.78807-2.039063 11.2998-2.039063 8.60942 0 15.91599 1.784162 21.91993 5.35254 6.00393 3.568377 10.50682 8.382782 13.50879 14.443359 3.00196 6.060577 4.50293 12.715784 4.50293 19.96582 0 7.363318-1.55761 13.678685-4.67286 18.946289-3.11525 5.267605-7.33493 9.289049-12.65918 12.064453-5.32424 2.775405-11.27145 4.163086-17.84179 4.163086-8.7227 0-15.57615-2.293922-20.56055-6.881836-4.9844-4.587913-7.47656-10.336879-7.47656-17.24707 0-8.835982 2.94528-16.68063 8.83594-23.53418zm62.02148 121.154297c3.39845-5.60745 8.04294-9.997054 13.93359-13.168945 5.89066-3.171891 12.51754-4.757813 19.88086-4.757813 8.94927 0 15.77439 2.010723 20.47559 6.032227 4.70119 4.021505 7.05176 9.940391 7.05176 17.756836 0 6.117218-1.75585 11.951144-5.26758 17.501953-3.51174 5.550809-8.2695 10.053694-14.27344 13.508789-6.00394 3.455096-12.57418 5.182617-19.71094 5.182617-8.94926 0-15.71775-1.954082-20.30566-5.862304-4.58791-3.908223-6.88184-9.600549-6.88184-17.077149 0-7.136754 1.6992-13.508761 5.09766-19.116211z" transform="translate(-509 -680)"/>
</svg>
