<?xml version="1.0" encoding="UTF-8"?>
<svg width="1215px" height="565px" viewBox="0 0 1215 565" version="1.1" xmlns="http://www.w3.org/2000/svg" xmlns:xlink="http://www.w3.org/1999/xlink">
    <!-- Generator: Sketch 46.2 (44496) - http://www.bohemiancoding.com/sketch -->
    <title>mad science.</title>
    <desc>Created with Sketch.</desc>
    <defs>
        <linearGradient x1="50%" y1="97.399155%" x2="50%" y2="38.6618895%" id="linearGradient-1">
            <stop stop-color="#222222" offset="0%"></stop>
            <stop stop-color="#111111" offset="100%"></stop>
        </linearGradient>
    </defs>
    <g id="Main" stroke="none" stroke-width="1" fill="none" fill-rule="evenodd">
        <g id="Experiments" transform="translate(-30.000000, -429.000000)" fill="url(#linearGradient-1)">
            <g id="bg-rect" transform="translate(30.000000, 30.000000)">
                <path d="M273.441406,619.21875 L264.605469,644.707031 C256.449178,668.609495 239.853641,680.560547 214.818359,680.560547 C199.298751,680.560547 188.537139,675.689502 182.533203,665.947266 C179.474594,660.736302 177.945312,654.619176 177.945312,647.595703 C177.945312,639.779258 179.701154,630.773488 183.212891,620.578125 L213.119141,530.519531 C214.818368,525.535131 215.667969,521.796887 215.667969,519.304688 C215.667969,516.585924 214.705088,515.226562 212.779297,515.226562 C208.361306,515.226562 203.00882,518.709926 196.72168,525.676758 C190.434539,532.64359 183.326212,544.424722 175.396484,561.020508 C167.466757,577.616294 159.310589,599.394396 150.927734,626.355469 L136.654297,675.632812 L74.6328125,675.632812 L116.433594,530.519531 C118.246103,524.289031 119.152344,520.324227 119.152344,518.625 C119.152344,516.359364 118.019543,515.226562 115.753906,515.226562 C107.484334,515.226562 98.2236841,524.572172 87.9716797,543.263672 C77.7196753,561.955172 67.0430243,588.122879 55.9414062,621.767578 L42.0078125,675.632812 L-19.6738281,675.632812 L22.8066406,524.572266 C23.826177,520.833966 24.3359375,517.945323 24.3359375,515.90625 C24.3359375,511.941386 22.5234556,509.958984 18.8984375,509.958984 C12.2148103,509.958984 6.097684,517.265552 0.546875,531.878906 L-7.43945312,553.119141 L-14.0664062,553.119141 L-4.38085938,525.931641 C0.150413281,513.583923 6.80562017,504.521513 15.5849609,498.744141 C24.3643017,492.966768 34.4179121,490.078125 45.7460938,490.078125 C57.7539663,490.078125 66.4198953,492.995088 71.7441406,498.829102 C77.068386,504.663115 79.7304688,512.337843 79.7304688,521.853516 C79.7304688,527.064479 78.994148,532.728485 77.5214844,538.845703 L73.6132812,554.138672 C80.1836266,538.958908 87.1220338,526.668016 94.4287109,517.265625 C101.735388,507.863234 109.778276,500.981467 118.557617,496.620117 C127.336958,492.258767 137.277288,490.078125 148.378906,490.078125 C168.769633,490.078125 178.964844,499.310455 178.964844,517.775391 C178.964844,524.912145 177.605482,533.238234 174.886719,542.753906 L173.017578,549.041016 C180.041051,533.974534 187.347618,522.108442 194.9375,513.442383 C202.527382,504.776324 210.34371,498.715838 218.386719,495.260742 C226.429728,491.805647 235.265577,490.078125 244.894531,490.078125 C265.738385,490.078125 276.160156,499.197174 276.160156,517.435547 C276.160156,524.685583 274.517595,533.124952 271.232422,542.753906 L236.908203,646.066406 C235.775385,649.464861 235.208984,652.240224 235.208984,654.392578 C235.208984,658.584005 237.134746,660.679688 240.986328,660.679688 C247.896519,660.679688 254.070285,653.37312 259.507812,638.759766 L266.814453,619.21875 L273.441406,619.21875 Z M475.988281,619.21875 L467.322266,644.707031 C458.939411,668.609495 442.343874,680.560547 417.535156,680.560547 C403.261647,680.560547 393.179717,676.482463 387.289062,668.326172 C383.437481,662.888645 381.511719,655.751997 381.511719,646.916016 C381.511719,644.310534 381.568359,642.271492 381.681641,640.798828 C376.130832,655.185619 368.937544,665.409149 360.101562,671.469727 C351.265581,677.530304 340.84381,680.560547 328.835938,680.560547 C314.449147,680.560547 303.659216,676.850623 296.46582,669.430664 C289.272425,662.010705 285.675781,651.220774 285.675781,637.060547 C285.675781,615.197156 291.509707,592.796013 303.177734,569.856445 C314.845761,546.916877 329.458897,527.885818 347.017578,512.762695 C364.57626,497.639573 381.341717,490.078125 397.314453,490.078125 C410.455144,490.078125 417.705071,496.761652 419.064453,510.128906 L423.482422,495.345703 C446.478631,495.005858 467.435452,493.250016 486.353516,490.078125 L439.455078,646.066406 C438.435542,649.125015 437.925781,651.957018 437.925781,654.5625 C437.925781,658.640645 439.794903,660.679688 443.533203,660.679688 C450.443394,660.679688 456.61716,653.37312 462.054688,638.759766 L469.361328,619.21875 L475.988281,619.21875 Z M372.845703,647.000977 C377.490258,640.487272 382.644503,628.84774 388.308594,612.082031 L415.496094,522.023438 C415.722657,519.531238 415.835938,517.832036 415.835938,516.925781 C415.835938,510.468718 413.626975,507.240234 409.208984,507.240234 C402.638639,507.240234 394.680711,513.952081 385.334961,527.375977 C375.989211,540.799872 367.946323,557.706929 361.206055,578.097656 C354.465787,598.488383 351.095703,618.595604 351.095703,638.419922 C351.095703,645.216831 351.662104,649.974596 352.794922,652.693359 C353.92774,655.412123 356.023422,656.771484 359.082031,656.771484 C363.613304,656.771484 368.201149,653.514681 372.845703,647.000977 Z M687.201172,619.21875 L678.535156,644.707031 C670.378865,668.609495 653.783328,680.560547 628.748047,680.560547 C614.021411,680.560547 603.59964,676.142622 597.482422,667.306641 C594.083967,662.322241 592.384766,655.808634 592.384766,647.765625 C592.384766,643.007789 592.951166,637.853543 594.083984,632.302734 C586.720666,648.84188 578.479538,661.019492 569.360352,668.835938 C560.241165,676.652383 548.828194,680.560547 535.121094,680.560547 C526.738239,680.560547 519.176792,678.776385 512.436523,675.208008 C505.696255,671.639631 500.31545,666.060585 496.293945,658.470703 C492.272441,650.880821 490.261719,641.308652 490.261719,629.753906 C490.261719,611.402252 494.991164,591.238391 504.450195,569.261719 C513.909227,547.285046 527.587801,528.593827 545.486328,513.1875 C563.384855,497.781173 584.285037,490.078125 608.1875,490.078125 C619.4024,490.078125 626.482407,492.966768 629.427734,498.744141 L644.041016,443.519531 C645.173834,439.328104 645.740234,436.099621 645.740234,433.833984 C645.740234,429.18943 643.927752,425.819346 640.302734,423.723633 C636.677716,421.627919 630.61723,420.580078 622.121094,420.580078 L624.5,413.273438 C659.390799,412.933592 690.826032,408.175827 718.806641,399 L650.667969,646.066406 C649.535151,649.351579 648.96875,652.070302 648.96875,654.222656 C648.96875,658.527365 650.951152,660.679688 654.916016,660.679688 C661.712925,660.679688 667.830051,653.37312 673.267578,638.759766 L680.574219,619.21875 L687.201172,619.21875 Z M575.477539,651.418945 C580.065453,646.377904 585.078098,638.306696 590.515625,627.205078 C595.953152,616.10346 601.277318,602.113366 606.488281,585.234375 L617.023438,545.472656 L617.193359,544.792969 L617.193359,544.962891 L627.21875,506.730469 C626.425777,503.785142 625.208016,501.632819 623.56543,500.273438 C621.922843,498.914056 619.459001,498.234375 616.173828,498.234375 C609.037074,498.234375 600.597705,505.116142 590.855469,518.879883 C581.113233,532.643624 572.758824,550.400282 565.791992,572.150391 C558.82516,593.900499 555.341797,616.216682 555.341797,639.099609 C555.341797,646.123082 555.936517,651.192367 557.125977,654.307617 C558.315436,657.422867 560.496078,658.980469 563.667969,658.980469 C566.953141,658.980469 570.889625,656.459986 575.477539,651.418945 Z M20.7675781,956.253906 C28.0176144,956.253906 33.9931406,953.846704 38.6943359,949.032227 C43.3955313,944.217749 45.7460938,937.789103 45.7460938,929.746094 C45.7460938,922.496058 44.018572,914.708049 40.5634766,906.381836 C37.1083812,898.055622 32.095736,888.568413 25.5253906,877.919922 L23.4863281,874.691406 C19.0683373,867.328088 15.6416137,861.380882 13.2060547,856.849609 C10.7704956,852.318337 8.75977355,847.418972 7.17382812,842.151367 C5.5878827,836.883763 4.79492188,831.417997 4.79492188,825.753906 C4.79492188,815.671825 7.37204454,806.666055 12.5263672,798.736328 C17.6806898,790.806601 25.4403779,784.547875 35.8056641,779.959961 C46.1709503,775.372047 58.8866434,773.078125 73.953125,773.078125 C91.0586793,773.078125 105.303654,776.136688 116.688477,782.253906 C128.073299,788.371124 133.765625,798.679615 133.765625,813.179688 C133.765625,818.164087 132.802744,823.035132 130.876953,827.792969 C128.951162,832.550805 126.147479,836.458969 122.46582,839.517578 C118.784161,842.576187 114.337917,844.105469 109.126953,844.105469 C102.216762,844.105469 96.7793167,841.415066 92.8144531,836.03418 C88.8495896,830.653293 86.8671875,823.601606 86.8671875,814.878906 C86.8671875,808.081997 87.9999887,801.709991 90.265625,795.762695 C92.5312613,789.8154 95.080064,785.312515 97.9121094,782.253906 C95.8730367,781.23437 92.9843937,780.724609 89.2460938,780.724609 C81.089803,780.724609 74.9443566,783.103492 70.8095703,787.861328 C66.674784,792.619164 64.6074219,799.529252 64.6074219,808.591797 C64.6074219,814.36917 65.8818232,820.033175 68.4306641,825.583984 C70.9795049,831.134793 74.915989,838.328081 80.2402344,847.164062 L85.1679688,855.320312 C92.8711323,868.461003 98.2519378,879.109334 101.310547,887.265625 C104.369156,895.421916 105.898438,903.408164 105.898438,911.224609 C105.898438,920.966846 103.236355,929.802695 97.9121094,937.732422 C92.587864,945.662149 84.6865758,951.949196 74.2080078,956.59375 C63.7294398,961.238304 51.1270268,963.560547 36.4003906,963.560547 C17.7088909,963.560547 2.30279498,960.105503 -9.81835938,953.195312 C-21.9395137,946.285122 -28,934.90047 -28,919.041016 C-28,910.205034 -25.8476778,902.813506 -21.5429688,896.866211 C-17.2382597,890.918916 -11.5176138,887.945312 -4.38085938,887.945312 C2.41604961,887.945312 7.88181526,890.748995 12.0166016,896.356445 C16.1513879,901.963895 18.21875,909.355423 18.21875,918.53125 C18.21875,923.062523 17.6806694,927.508767 16.6044922,931.870117 C15.5283149,936.231467 14.2255936,940.309551 12.6962891,944.104492 C11.1669845,947.899433 9.77930311,951.099596 8.53320312,953.705078 C12.0449394,955.404305 16.1230237,956.253906 20.7675781,956.253906 Z M234.954102,798.651367 C224.588815,811.055726 216.206087,827.056543 209.805664,846.654297 C203.405241,866.252051 200.205078,886.189352 200.205078,906.466797 C200.205078,918.474669 202.668921,927.395479 207.59668,933.229492 C212.524439,939.063506 219.349566,941.980469 228.072266,941.980469 C235.435584,941.980469 242.515591,939.884787 249.3125,935.693359 C256.109409,931.501932 262.962856,924.308645 269.873047,914.113281 L276.839844,916.832031 C256.788962,947.984531 230.224775,963.560547 197.146484,963.560547 C185.02533,963.560547 174.292039,961.549825 164.946289,957.52832 C155.600539,953.506816 148.293972,947.38969 143.026367,939.176758 C137.758763,930.963826 135.125,920.740296 135.125,908.505859 C135.125,887.888569 140.477486,867.045027 151.182617,845.974609 C161.887749,824.904192 176.982324,807.487374 196.466797,793.723633 C215.951269,779.959892 238.097532,773.078125 262.90625,773.078125 C272.195359,773.078125 280.266567,774.720687 287.120117,778.005859 C293.973667,781.291032 299.184552,785.680637 302.75293,791.174805 C306.321307,796.668973 308.105469,802.701139 308.105469,809.271484 C308.105469,816.634802 306.236347,823.85641 302.498047,830.936523 C298.759747,838.016637 293.747102,843.793923 287.459961,848.268555 C281.17282,852.743186 274.460973,854.980469 267.324219,854.980469 C263.132792,854.980469 259.252948,854.045908 255.68457,852.176758 C252.116193,850.307608 249.22755,847.532245 247.018555,843.850586 C244.809559,840.168927 243.705078,835.722682 243.705078,830.511719 C243.705078,823.261683 245.34764,816.464875 248.632812,810.121094 C251.917985,803.777312 256.25095,798.368186 261.631836,793.893555 C267.012722,789.418923 272.874968,786.21876 279.21875,784.292969 C276.046859,781.460923 272.082055,780.044922 267.324219,780.044922 C256.109319,780.044922 245.319388,786.247008 234.954102,798.651367 Z M373.185547,695.848633 C381.001992,689.561492 391.253843,686.417969 403.941406,686.417969 C414.023488,686.417969 421.698216,688.428691 426.96582,692.450195 C432.233425,696.4717 434.867188,702.390586 434.867188,710.207031 C434.867188,717.343786 432.998066,723.659152 429.259766,729.15332 C425.521466,734.647488 420.39554,738.895493 413.881836,741.897461 C407.368131,744.899429 400.089884,746.400391 392.046875,746.400391 C382.078075,746.400391 374.488307,744.446309 369.277344,740.538086 C364.06638,736.629863 361.460938,730.937537 361.460938,723.460938 C361.460938,711.339783 365.369102,702.135774 373.185547,695.848633 Z M348.716797,798.90625 C348.716797,794.941386 347.074235,792.958984 343.789062,792.958984 C340.164044,792.958984 336.822281,794.601546 333.763672,797.886719 C330.705063,801.171891 327.6465,806.835897 324.587891,814.878906 L316.601562,836.119141 L309.974609,836.119141 L319.660156,808.931641 C328.382856,785.029177 345.714714,773.078125 371.65625,773.078125 C384.11725,773.078125 393.264619,776.080048 399.098633,782.083984 C404.932646,788.087921 407.849609,795.790969 407.849609,805.193359 C407.849609,810.744168 406.886728,816.294894 404.960938,821.845703 L368.767578,929.066406 C367.63476,932.464861 367.068359,935.296864 367.068359,937.5625 C367.068359,941.640645 369.050761,943.679688 373.015625,943.679688 C379.812534,943.679688 385.92966,936.37312 391.367188,921.759766 L398.673828,902.21875 L405.300781,902.21875 L396.634766,927.707031 C388.478475,951.609495 371.882938,963.560547 346.847656,963.560547 C335.066347,963.560547 325.947298,960.785184 319.490234,955.234375 C313.033171,949.683566 309.804688,941.470757 309.804688,930.595703 C309.804688,922.89254 311.503889,913.88677 314.902344,903.578125 L346.847656,807.572266 C348.093756,804.287093 348.716797,801.39845 348.716797,798.90625 Z M578.960938,840.367188 C568.425729,851.468806 554.832115,860.927695 538.179688,868.744141 C521.52726,876.560586 503.798922,882.621072 484.994141,886.925781 C484.201168,894.062536 483.804688,900.009742 483.804688,904.767578 C483.804688,917.455142 486.24021,926.234351 491.111328,931.105469 C495.982446,935.976587 503.175734,938.412109 512.691406,938.412109 C518.468779,938.412109 525.916947,936.429707 535.036133,932.464844 C544.155319,928.49998 552.962848,922.382854 561.458984,914.113281 L566.896484,916.832031 C558.060503,930.086004 546.10945,941.187455 531.042969,950.136719 C515.976487,959.085982 498.587989,963.560547 478.876953,963.560547 C467.775335,963.560547 457.665085,961.663105 448.545898,957.868164 C439.426712,954.073223 432.176785,948.494177 426.795898,941.130859 C421.415012,933.767541 418.724609,924.875052 418.724609,914.453125 C418.724609,891.68348 424.586855,869.367297 436.311523,847.503906 C448.036191,825.640516 464.065328,807.770577 484.399414,793.893555 C504.7335,780.016532 527.134643,773.078125 551.603516,773.078125 C564.630925,773.078125 575.081015,775.683568 582.954102,780.894531 C590.827188,786.105495 594.763672,793.751903 594.763672,803.833984 C594.763672,817.087957 589.496146,829.265569 578.960938,840.367188 Z M522.207031,794.743164 C514.164022,804.768605 506.800815,817.625898 500.117188,833.31543 C493.43356,849.004961 488.732435,864.779218 486.013672,880.638672 C498.474672,873.615199 509.123003,865.742231 517.958984,857.019531 C539.029402,836.175677 549.564453,813.349733 549.564453,788.541016 C549.564453,782.650361 547.695331,779.705078 543.957031,779.705078 C537.499968,779.705078 530.25004,784.717723 522.207031,794.743164 Z M793.572266,902.21875 L784.90625,927.707031 C776.523396,951.609495 759.927858,963.560547 735.119141,963.560547 C720.165941,963.560547 709.68753,959.369183 703.683594,950.986328 C699.832012,945.775365 697.90625,939.261758 697.90625,931.445312 C697.90625,924.081994 699.718732,914.793025 703.34375,903.578125 L733.25,813.519531 C735.289073,807.628877 736.308594,803.097672 736.308594,799.925781 C736.308594,796.414045 735.062512,794.658203 732.570312,794.658203 C726.566376,794.658203 718.778368,802.786052 709.206055,819.041992 C699.633741,835.297933 689.948291,856.084834 680.149414,881.40332 C670.350537,906.721806 662.109408,932.124873 655.425781,957.613281 L655.595703,956.933594 L655.085938,958.632812 L593.404297,958.632812 L635.884766,807.572266 C637.244147,802.474584 637.923828,799.13282 637.923828,797.546875 C637.923828,794.488266 636.224626,792.958984 632.826172,792.958984 C629.201154,792.958984 625.85939,794.601546 622.800781,797.886719 C619.742172,801.171891 616.683609,806.835897 613.625,814.878906 L605.638672,836.119141 L599.011719,836.119141 L608.697266,808.931641 C613.001975,796.697204 619.062461,787.663115 626.878906,781.829102 C634.695352,775.995088 644.550722,773.078125 656.445312,773.078125 C669.472721,773.078125 678.846651,776.136688 684.567383,782.253906 C690.288115,788.371124 693.148438,796.244092 693.148438,805.873047 C693.148438,810.857447 692.412117,816.181612 690.939453,821.845703 L681.423828,858.039062 C690.486373,835.382699 699.180622,817.909241 707.506836,805.618164 C715.833049,793.327087 724.244098,784.831078 732.740234,780.129883 C741.236371,775.428687 750.921821,773.078125 761.796875,773.078125 C784.56652,773.078125 795.951172,782.706935 795.951172,801.964844 C795.951172,808.648471 794.42189,816.578079 791.363281,825.753906 L757.039062,929.066406 C755.906244,932.464861 755.339844,935.240224 755.339844,937.392578 C755.339844,941.584005 757.265606,943.679688 761.117188,943.679688 C768.027378,943.679688 774.201145,936.37312 779.638672,921.759766 L786.945312,902.21875 L793.572266,902.21875 Z M908.354492,798.651367 C897.989206,811.055726 889.606477,827.056543 883.206055,846.654297 C876.805632,866.252051 873.605469,886.189352 873.605469,906.466797 C873.605469,918.474669 876.069311,927.395479 880.99707,933.229492 C885.924829,939.063506 892.749956,941.980469 901.472656,941.980469 C908.835974,941.980469 915.915982,939.884787 922.712891,935.693359 C929.5098,931.501932 936.363247,924.308645 943.273438,914.113281 L950.240234,916.832031 C930.189353,947.984531 903.625165,963.560547 870.546875,963.560547 C858.425721,963.560547 847.69243,961.549825 838.34668,957.52832 C829.00093,953.506816 821.694362,947.38969 816.426758,939.176758 C811.159153,930.963826 808.525391,920.740296 808.525391,908.505859 C808.525391,887.888569 813.877876,867.045027 824.583008,845.974609 C835.288139,824.904192 850.382715,807.487374 869.867188,793.723633 C889.35166,779.959892 911.497923,773.078125 936.306641,773.078125 C945.59575,773.078125 953.666958,774.720687 960.520508,778.005859 C967.374058,781.291032 972.584943,785.680637 976.15332,791.174805 C979.721698,796.668973 981.505859,802.701139 981.505859,809.271484 C981.505859,816.634802 979.636737,823.85641 975.898438,830.936523 C972.160138,838.016637 967.147492,843.793923 960.860352,848.268555 C954.573211,852.743186 947.861364,854.980469 940.724609,854.980469 C936.533182,854.980469 932.653338,854.045908 929.084961,852.176758 C925.516584,850.307608 922.627941,847.532245 920.418945,843.850586 C918.20995,840.168927 917.105469,835.722682 917.105469,830.511719 C917.105469,823.261683 918.74803,816.464875 922.033203,810.121094 C925.318376,803.777312 929.65134,798.368186 935.032227,793.893555 C940.413113,789.418923 946.275359,786.21876 952.619141,784.292969 C949.44725,781.460923 945.482446,780.044922 940.724609,780.044922 C929.50971,780.044922 918.719778,786.247008 908.354492,798.651367 Z M1135.45508,840.367188 C1124.91987,851.468806 1111.32626,860.927695 1094.67383,868.744141 C1078.0214,876.560586 1060.29306,882.621072 1041.48828,886.925781 C1040.69531,894.062536 1040.29883,900.009742 1040.29883,904.767578 C1040.29883,917.455142 1042.73435,926.234351 1047.60547,931.105469 C1052.47659,935.976587 1059.66987,938.412109 1069.18555,938.412109 C1074.96292,938.412109 1082.41109,936.429707 1091.53027,932.464844 C1100.64946,928.49998 1109.45699,922.382854 1117.95312,914.113281 L1123.39062,916.832031 C1114.55464,930.086004 1102.60359,941.187455 1087.53711,950.136719 C1072.47063,959.085982 1055.08213,963.560547 1035.37109,963.560547 C1024.26948,963.560547 1014.15923,961.663105 1005.04004,957.868164 C995.920853,954.073223 988.670925,948.494177 983.290039,941.130859 C977.909153,933.767541 975.21875,924.875052 975.21875,914.453125 C975.21875,891.68348 981.080996,869.367297 992.805664,847.503906 C1004.53033,825.640516 1020.55947,807.770577 1040.89355,793.893555 C1061.22764,780.016532 1083.62878,773.078125 1108.09766,773.078125 C1121.12507,773.078125 1131.57516,775.683568 1139.44824,780.894531 C1147.32133,786.105495 1151.25781,793.751903 1151.25781,803.833984 C1151.25781,817.087957 1145.99029,829.265569 1135.45508,840.367188 Z M1078.70117,794.743164 C1070.65816,804.768605 1063.29496,817.625898 1056.61133,833.31543 C1049.9277,849.004961 1045.22658,864.779218 1042.50781,880.638672 C1054.96881,873.615199 1065.61714,865.742231 1074.45312,857.019531 C1095.52354,836.175677 1106.05859,813.349733 1106.05859,788.541016 C1106.05859,782.650361 1104.18947,779.705078 1100.45117,779.705078 C1093.99411,779.705078 1086.74418,784.717723 1078.70117,794.743164 Z M1153.63672,921.504883 C1157.03517,915.897433 1161.67966,911.507828 1167.57031,908.335938 C1173.46097,905.164047 1180.08785,903.578125 1187.45117,903.578125 C1196.40044,903.578125 1203.22556,905.588847 1207.92676,909.610352 C1212.62795,913.631856 1214.97852,919.550742 1214.97852,927.367188 C1214.97852,933.484406 1213.22267,939.318332 1209.71094,944.869141 C1206.1992,950.41995 1201.44144,954.922834 1195.4375,958.37793 C1189.43356,961.833025 1182.86332,963.560547 1175.72656,963.560547 C1166.7773,963.560547 1160.00881,961.606465 1155.4209,957.698242 C1150.83298,953.79002 1148.53906,948.097694 1148.53906,940.621094 C1148.53906,933.484339 1150.23826,927.112333 1153.63672,921.504883 Z" id="mad-science."></path>
            </g>
        </g>
    </g>
</svg>