<?xml version="1.0" encoding="UTF-8"?>
<svg width="220px" height="37px" viewBox="0 0 220 37" version="1.1" xmlns="http://www.w3.org/2000/svg" xmlns:xlink="http://www.w3.org/1999/xlink">
    <!-- Generator: Sketch 46.1 (44463) - http://www.bohemiancoding.com/sketch -->
    <title>fbox</title>
    <desc>Created with Sketch.</desc>
    <defs></defs>
    <g id="Page-1" stroke="none" stroke-width="1" fill="none" fill-rule="evenodd">
        <g id="experience---fbox" transform="translate(-176.000000, -319.000000)" fill-rule="nonzero" fill="#FFFFFF">
            <g id="fbox" transform="translate(176.000000, 319.000000)">
                <path d="M4.02778613,35.4786419 L4.02778613,17.8562951 L-0.000220914,17.8562951 L-0.000220914,11.1596414 L4.02778613,11.1596414 L4.02778613,10.6058825 C4.02778613,4.814978 7.65372885,1.3915402 12.7384434,1.3915402 C15.3570162,1.3915402 18.0757368,2.14706767 19.6869397,3.65738621 L16.8673347,8.49173105 C16.2627655,7.93723575 15.4571641,7.63458293 14.3503826,7.63458293 C12.940212,7.63458293 11.7818838,8.59187894 11.7818838,10.6058825 L11.7818838,11.1596414 L16.7156401,11.1596414 L16.7156401,17.8562951 L11.7818838,17.8562951 L11.7818838,35.4786419 L4.02778613,35.4786419 Z" id="Fill-1"></path>
                <path d="M36.755822,35.4786419 L36.755822,32.5581527 C35.2455035,34.2702398 32.4759725,36.0824747 28.3470812,36.0824747 C22.8595659,36.0824747 20.3418774,32.9108794 20.3418774,28.4800717 L20.3418774,11.1596414 L28.0952387,11.1596414 L28.0952387,25.257666 C28.0952387,28.2282292 29.6062936,29.2348628 32.1239821,29.2348628 C34.3390178,29.2348628 35.8500727,28.027197 36.755822,26.8688689 L36.755822,11.1596414 L44.5091833,11.1596414 L44.5091833,35.4786419 L36.755822,35.4786419 Z" id="Fill-4"></path>
                <path d="M47.6814413,32.3066047 L50.903847,26.7682791 C52.7168183,28.379482 56.5938672,30.0407587 59.463546,30.0407587 C61.7802024,30.0407587 62.7360256,29.3861155 62.7360256,28.329408 C62.7360256,25.3080345 48.587927,28.4295559 48.587927,18.5613068 C48.587927,14.2807209 52.3140176,10.5553667 59.0106714,10.5553667 C63.1388263,10.5553667 66.5630005,11.8646531 69.1808369,13.7777723 L66.2102737,19.266024 C64.7507655,17.8565897 61.9812345,16.5973773 59.0607453,16.5973773 C57.247774,16.5973773 56.0401082,17.3020944 56.0401082,18.2593904 C56.0401082,20.9273007 70.1373965,18.1585061 70.1373965,28.1276395 C70.1373965,32.7594794 66.0593155,36.0827693 59.1108193,36.0827693 C54.7300855,36.0827693 50.2492038,34.6232611 47.6814413,32.3066047" id="Fill-6"></path>
                <path d="M73.3605385,11.1591259 L81.1138998,11.1591259 L81.1138998,35.4781264 L73.3605385,35.4781264 L73.3605385,11.1591259 Z M72.8067796,4.51328248 C72.8067796,2.04640431 74.7699728,0.0824747329 77.2375874,0.0824747329 C79.7044655,0.0824747329 81.7184691,2.04640431 81.7184691,4.51328248 C81.7184691,6.98016065 79.7044655,8.99490056 77.2375874,8.99490056 C74.7699728,8.99490056 72.8067796,6.98016065 72.8067796,4.51328248 L72.8067796,4.51328248 Z" id="Fill-9"></path>
                <path d="M102.361379,23.2938101 C102.361379,20.0714045 100.44826,17.4027577 97.0240858,17.4027577 C93.7007959,17.4027577 91.788413,20.0714045 91.788413,23.2938101 C91.788413,26.5662897 93.7007959,29.2349364 97.0240858,29.2349364 C100.44826,29.2349364 102.361379,26.5662897 102.361379,23.2938101 M83.8325468,23.2938101 C83.8325468,16.4461981 88.7670396,10.5551458 97.0240858,10.5551458 C105.382753,10.5551458 110.317245,16.4461981 110.317245,23.2938101 C110.317245,30.1414221 105.382753,36.0825484 97.0240858,36.0825484 C88.7670396,36.0825484 83.8325468,30.1414221 83.8325468,23.2938101" id="Fill-11"></path>
                <path d="M129.60028,35.4786419 L129.60028,21.4314275 C129.60028,18.4608644 128.039887,17.4026841 125.623083,17.4026841 C123.306427,17.4026841 121.796108,18.6618966 120.889623,19.7694144 L120.889623,35.4786419 L113.136261,35.4786419 L113.136261,11.1596414 L120.889623,11.1596414 L120.889623,14.1302045 C122.349867,12.4188538 125.220282,10.5550721 129.348437,10.5550721 C134.836689,10.5550721 137.353641,13.7774778 137.353641,18.2590958 L137.353641,35.4786419 L129.60028,35.4786419 Z" id="Fill-12"></path>
                <path d="M153.516848,29.2352309 C156.588295,29.2352309 158.903479,26.9693849 158.903479,23.2941047 C158.903479,19.6688983 156.588295,17.4030523 153.516848,17.4030523 C151.854835,17.4030523 149.841568,18.309538 148.884272,19.618088 L148.884272,27.0702692 C149.841568,28.3795556 151.854835,29.2352309 153.516848,29.2352309 L153.516848,29.2352309 Z M141.13091,35.4790101 L141.13091,1.89559337 L148.884272,1.89559337 L148.884272,14.0296884 C150.798127,11.6128842 153.415964,10.5554403 156.08461,10.5554403 C162.176695,10.5554403 166.809271,15.3389748 166.809271,23.2941047 C166.809271,31.5518873 162.07581,36.0828429 156.08461,36.0828429 C153.36589,36.0828429 150.898275,34.9753251 148.884272,32.6586687 L148.884272,35.4790101 L141.13091,35.4790101 Z" id="Fill-13"></path>
                <path d="M186.999233,23.2938101 C186.999233,20.0714045 185.086114,17.4027577 181.66194,17.4027577 C178.33865,17.4027577 176.426267,20.0714045 176.426267,23.2938101 C176.426267,26.5662897 178.33865,29.2349364 181.66194,29.2349364 C185.086114,29.2349364 186.999233,26.5662897 186.999233,23.2938101 M168.470401,23.2938101 C168.470401,16.4461981 173.404893,10.5551458 181.66194,10.5551458 C190.020606,10.5551458 194.955099,16.4461981 194.955099,23.2938101 C194.955099,30.1414221 190.020606,36.0825484 181.66194,36.0825484 C173.404893,36.0825484 168.470401,30.1414221 168.470401,23.2938101" id="Fill-14"></path>
                <polygon id="Fill-15" points="211.267423 35.4786419 206.635583 28.1280813 201.852785 35.4786419 193.39397 35.4786419 201.70109 22.99182 193.896919 11.1596414 202.406544 11.1596414 206.585509 17.7561473 210.713664 11.1596414 219.223289 11.1596414 211.469192 22.99182 219.777048 35.4786419"></polygon>
            </g>
        </g>
    </g>
</svg>